:FULLY-SPECIFIED
:FORCE-ALL-JOINTS-BE-3DOF
:DEGREES
1
root 7.46593 15.9937 -36.7321 7.11356 1.31487 -3.66776
lfemur -40.6897 6.42258 -16.3516
ltibia 43.9106 0 0
lfoot -14.6186 8.34667 0
ltoes -11.8487 0 0
rfemur -9.89801 4.72659 30.1099
rtibia 24.1198 0 0
rfoot 0 0 0
rtoes 0 0 0
lowerback -4.29912 0.189404 0.939401
upperback -1.51886 0.185188 2.55702
thorax 0.845091 0.0960327 2.10705
lowerneck -18.6579 -5.17414 -13.3376
upperneck 13.6797 -6.63107 16.9236
head 8.38994 -2.28192 7.17028
lclavicle 6.33626e-15 1.59028e-14 0
lhumerus -35.9267 -2.97855 86.2544
lradius 27.4056 0 0
lwrist 7.30557 0 0
lhand -13.3003 -23.0211 0
lfingers 7.12502 0 0
lthumb 12.8038 6.56624 0
rclavicle 6.33626e-15 1.59028e-14 0
rhumerus -38.7688 17.4551 -84.1031
rradius 56.1989 0 0
rwrist -28.5696 0 0
rhand -33.2015 -25.7513 0
rfingers 7.12502 0 0
rthumb -6.4087 -55.6344 0
2
root 7.47689 15.9854 -36.6958 7.15938 0.873268 -3.75375
lfemur -41.3694 6.62378 -16.2229
ltibia 44.2512 0 0
lfoot -14.2356 8.32917 0
ltoes -11.5967 0 0
rfemur -8.52284 4.61928 29.9812
rtibia 23.9961 0 0
rfoot 0.646258 0.142514 0
rtoes -0.174678 0 0
lowerback -4.31426 0.264295 0.98253
upperback -1.5797 0.280157 2.58712
thorax 0.78228 0.145613 2.12253
lowerneck -18.7414 -5.14754 -13.3304
upperneck 13.6961 -6.5935 16.9356
head 8.40362 -2.25838 7.18047
lclavicle 7.52083e-15 1.45697e-14 0
lhumerus -36.5369 -2.55832 86.3226
lradius 26.9077 0 0
lwrist 6.72383 0 0
lhand -12.5787 -22.7199 0
lfingers 7.12502 0 0
lthumb 13.4968 6.79001 0
rclavicle 7.52083e-15 1.45697e-14 0
rhumerus -38.9531 17.5906 -84.4453
rradius 56.1392 0 0
rwrist -28.5083 0 0
rhand -33.111 -25.8166 0
rfingers 7.12502 0 0
rthumb -6.32135 -55.7015 0
3
root 7.48911 15.9775 -36.6498 7.20131 0.439437 -3.83234
lfemur -42.0037 6.81634 -16.1064
ltibia 44.5628 0 0
lfoot -13.8621 8.30999 0
ltoes -11.3426 0 0
rfemur -7.19403 4.51494 29.8429
rtibia 23.8858 0 0
rfoot 1.26402 0.275979 0
rtoes -0.35836 0 0
lowerback -4.33142 0.335743 1.02094
upperback -1.63841 0.370893 2.61611
thorax 0.723204 0.192966 2.13912
lowerneck -18.8243 -5.12143 -13.323
upperneck 13.7172 -6.55614 16.9431
head 8.41867 -2.23543 7.18905
lclavicle 8.65926e-15 1.32522e-14 0
lhumerus -37.1236 -2.16243 86.3908
lradius 26.428 0 0
lwrist 6.15653 0 0
lhand -11.8731 -22.4267 0
lfingers 7.12502 0 0
lthumb 14.1745 7.00733 0
rclavicle 8.65926e-15 1.32522e-14 0
rhumerus -39.1381 17.7182 -84.7826
rradius 56.0666 0 0
rwrist -28.4423 0 0
rhand -33.0197 -25.8794 0
rfingers 7.12502 0 0
rthumb -6.23319 -55.766 0
4
root 7.50252 15.97 -36.5943 7.23944 0.0134059 -3.90369
lfemur -42.5937 7.00041 -16.0018
ltibia 44.8461 0 0
lfoot -13.498 8.2892 0
ltoes -11.0865 0 0
rfemur -5.91103 4.41353 29.6954
rtibia 23.7887 0 0
rfoot 1.85375 0.400581 0
rtoes -0.550672 0 0
lowerback -4.35053 0.403807 1.05474
upperback -1.69502 0.457466 2.64402
thorax 0.667788 0.238128 2.15678
lowerneck -18.9064 -5.09581 -13.3154
upperneck 13.7428 -6.51899 16.9462
head 8.43502 -2.21306 7.19609
lclavicle 9.75223e-15 1.19506e-14 0
lhumerus -37.6872 -1.79038 86.4588
lradius 25.9661 0 0
lwrist 5.6036 0 0
lhand -11.1832 -22.1416 0
lfingers 7.12502 0 0
lthumb 14.837 7.21827 0
rclavicle 9.75223e-15 1.19506e-14 0
rhumerus -39.3236 17.8382 -85.115
rradius 55.9813 0 0
rwrist -28.372 0 0
rhand -32.9277 -25.9398 0
rfingers 7.12502 0 0
rthumb -6.14429 -55.8282 0
5
root 7.5171 15.9629 -36.5298 7.27386 -0.404795 -3.96797
lfemur -43.1402 7.17612 -15.9089
ltibia 45.1018 0 0
lfoot -13.1434 8.26686 0
ltoes -10.8287 0 0
rfemur -4.67325 4.31503 29.5391
rtibia 23.7044 0 0
rfoot 2.41592 0.516507 0
rtoes -0.751241 0 0
lowerback -4.37153 0.468546 1.08406
upperback -1.74955 0.539948 2.67085
thorax 0.615957 0.281138 2.17548
lowerneck -18.9878 -5.07068 -13.3078
upperneck 13.7727 -6.48207 16.945
head 8.45264 -2.19126 7.2016
lclavicle 1.08004e-14 1.06652e-14 0
lhumerus -38.2279 -1.4417 86.5267
lradius 25.5219 0 0
lwrist 5.06493 0 0
lhand -10.5091 -21.8644 0
lfingers 7.12502 0 0
lthumb 15.4843 7.42287 0
rclavicle 1.08004e-14 1.06652e-14 0
rhumerus -39.5094 17.9507 -85.4424
rradius 55.884 0 0
rwrist -28.2975 0 0
rhand -32.8349 -25.9977 0
rfingers 7.12502 0 0
rthumb -6.05473 -55.8879 0
6
root 7.5328 15.9561 -36.4565 7.30465 -0.815138 -4.02536
lfemur -43.6442 7.34362 -15.8273
ltibia 45.3305 0 0
lfoot -12.798 8.24302 0
ltoes -10.5694 0 0
rfemur -3.48011 4.21942 29.3743
rtibia 23.6326 0 0
rfoot 2.951 0.623944 0
rtoes -0.959692 0 0
lowerback -4.39433 0.530018 1.109
upperback -1.80203 0.618408 2.69663
thorax 0.567637 0.322032 2.19515
lowerneck -19.0684 -5.04604 -13.3
upperneck 13.8069 -6.44539 16.9396
head 8.47147 -2.17004 7.20565
lclavicle 1.18045e-14 9.3965e-15 0
lhumerus -38.7462 -1.11591 86.5944
lradius 25.095 0 0
lwrist 4.54045 0 0
lhand -9.8508 -21.595 0
lfingers 7.12502 0 0
lthumb 16.1165 7.62122 0
rclavicle 1.18045e-14 9.3965e-15 0
rhumerus -39.6955 18.0559 -85.7648
rradius 55.7749 0 0
rwrist -28.2189 0 0
rhand -32.7416 -26.0532 0
rfingers 7.12502 0 0
rthumb -5.96459 -55.9453 0
